<?xml version="1.0" standalone="no"?><svg xmlns="http://www.w3.org/2000/svg" viewBox="0 0 1440 320"><path fill="#ffffff" fill-opacity="1" d="M0,320L40,309.3C80,299,160,277,240,245.3C320,213,400,171,480,170.7C560,171,640,213,720,218.7C800,224,880,192,960,149.3C1040,107,1120,53,1200,69.3C1280,85,1360,171,1400,213.3L1440,256L1440,320L1400,320C1360,320,1280,320,1200,320C1120,320,1040,320,960,320C880,320,800,320,720,320C640,320,560,320,480,320C400,320,320,320,240,320C160,320,80,320,40,320L0,320Z"></path></svg>